<?xml version="1.0" encoding="UTF-8"?>
<svg version="1.1" xmlns="http://www.w3.org/2000/svg" width="225" height="212">
<path d="M0 0 C0.98247208 -0.0071553 1.96494415 -0.01431061 2.97718811 -0.02168274 C4.04891266 -0.02437164 5.12063721 -0.02706055 6.22483826 -0.02983093 C7.35867447 -0.03640213 8.49251068 -0.04297333 9.66070557 -0.04974365 C13.41702847 -0.06947004 17.17331137 -0.08113921 20.92967224 -0.09111023 C22.85633885 -0.09722352 22.85633885 -0.09722352 24.82192802 -0.10346031 C30.92215462 -0.12217018 37.02236124 -0.13673463 43.12261063 -0.14507228 C50.1413962 -0.15482592 57.15986483 -0.18109885 64.17853886 -0.22157317 C70.27500469 -0.25551027 76.37133859 -0.26722875 82.4678936 -0.27127647 C85.0517434 -0.27613617 87.63558997 -0.28773242 90.21937752 -0.30631447 C93.84514911 -0.33076486 97.47010253 -0.32972927 101.09593201 -0.32279968 C102.15348694 -0.33560974 103.21104187 -0.3484198 104.30064392 -0.36161804 C116.78904321 -0.27509218 126.04707817 4.17561964 134.86326599 12.87373352 C143.9894054 22.86685617 145.44598934 34.37309181 145.31199646 47.48091125 C145.30744194 49.10982803 145.30744194 49.10982803 145.30279541 50.77165222 C145.28959847 54.33317436 145.26094401 57.8943515 145.23045349 61.45576477 C145.21441391 63.94860621 145.19872332 66.44144992 145.18336487 68.93429565 C145.14846208 74.14832476 145.10512825 79.36220662 145.05662537 84.5761261 C144.99592399 91.23802588 144.96266312 97.89960115 144.93656731 104.56173611 C144.91225417 109.70674487 144.87003111 114.85149471 144.82283401 119.9963398 C144.80305508 122.4517349 144.78952329 124.90718898 144.78251266 127.36265373 C144.77064955 130.80356934 144.7337655 134.24338533 144.69090271 137.68403625 C144.69279099 138.68541122 144.69467926 139.68678619 144.69662476 140.71850586 C144.48891928 152.47972749 140.36769828 161.80749503 132.11326599 170.14717102 C122.62197635 178.26291144 113.73661824 180.60378067 101.43406677 180.55122375 C100.29950043 180.55808701 99.16493408 180.56495026 97.99598694 180.57202148 C94.26672142 180.59023731 90.53787872 180.58645899 86.80857849 180.58076477 C84.20220301 180.58532925 81.59582872 180.59063561 78.98945618 180.59664917 C73.53410338 180.60665436 68.07886931 180.60340454 62.6235199 180.59321594 C56.34260205 180.58174375 50.06211166 180.59580409 43.78125012 180.62261242 C37.70876504 180.64754837 31.63647532 180.64992901 25.56394577 180.64349556 C22.994066 180.64334271 20.42417786 180.64935655 17.85432816 180.66178703 C14.25298518 180.67675301 10.65256931 180.66597722 7.05125427 180.64888 C6.00155457 180.65854797 4.95185486 180.66821594 3.87034607 180.67817688 C-8.18320563 180.55904315 -17.22698622 176.42576794 -25.88673401 168.14717102 C-38.60725021 155.00821678 -37.60489691 138.5413599 -37.48048401 121.51045227 C-37.47877026 119.01950132 -37.47884127 116.52854857 -37.48060608 114.03759766 C-37.47895914 108.83720968 -37.46037202 103.63725606 -37.4287262 98.43696594 C-37.38898867 91.7893873 -37.38469227 85.14271137 -37.39218903 78.49503803 C-37.39526562 73.35874292 -37.38311456 68.22257379 -37.36605835 63.08630943 C-37.35905612 60.63563515 -37.35590043 58.18494661 -37.35675049 55.73426247 C-37.35494238 52.30563904 -37.33347498 48.87768059 -37.30665588 45.44917297 C-37.30958649 44.44891586 -37.31251709 43.44865875 -37.3155365 42.41809082 C-37.21462094 34.00896833 -35.54780764 26.30897007 -31.19923401 19.02217102 C-30.76224182 18.2770929 -30.32524963 17.53201477 -29.87501526 16.76435852 C-29.38581604 15.96385071 -29.38581604 15.96385071 -28.88673401 15.14717102 C-28.22673401 15.14717102 -27.56673401 15.14717102 -26.88673401 15.14717102 C-26.68048401 14.59029602 -26.47423401 14.03342102 -26.26173401 13.45967102 C-22.35693077 6.89250194 -14.18958381 2.74240019 -7.04420567 0.59289265 C-4.64415683 0.09705593 -2.45097038 0.01229077 0 0 Z " fill="#1566F0" transform="translate(54.88673400878906,11.852828979492188)"/>
<path d="M0 0 C5.28 0 10.56 0 16 0 C17.26601243 5.30130783 18.52935906 10.60324132 19.7902832 15.90576172 C20.2192454 17.70801784 20.64892442 19.51010351 21.0793457 21.31201172 C21.69933416 23.90807899 22.31670785 26.50475648 22.93359375 29.1015625 C23.12529648 29.9017984 23.31699921 30.7020343 23.51451111 31.52651978 C24.49578588 35.66894837 25.36074537 39.78740035 26 44 C26.20753906 43.16984375 26.41507813 42.3396875 26.62890625 41.484375 C30.0859375 27.65625 33.54296875 13.828125 37 0 C42.28 0 47.56 0 53 0 C56.66666667 14.66666667 60.33333333 29.33333333 64 44 C64.23187012 42.95134766 64.46374023 41.90269531 64.70263672 40.82226562 C65.57002651 36.90079768 66.43885741 32.97965016 67.30810547 29.05859375 C67.68284265 27.36727347 68.0571983 25.67586861 68.43115234 23.984375 C68.97130634 21.54143852 69.5128696 19.09881792 70.0546875 16.65625 C70.301689 15.53700134 70.301689 15.53700134 70.55368042 14.3951416 C71.62461908 9.57541211 72.78472632 4.78543567 74 0 C79.28 0 84.56 0 90 0 C88.90926286 6.14779114 87.45338092 12.12057293 85.75 18.125 C82.95116931 28.09620903 80.31050893 38.10636182 77.6875 48.125 C77.2286333 49.8737288 76.7696494 51.62242685 76.31054688 53.37109375 C75.20547464 57.58032385 74.1027795 61.79016604 73 66 C67.39 66 61.78 66 56 66 C53.29033583 56.40004693 50.64034932 46.79394504 48.1875 37.125 C47.96876221 36.27583008 47.75002441 35.42666016 47.5246582 34.55175781 C47.32445068 33.75350586 47.12424316 32.95525391 46.91796875 32.1328125 C46.65149536 31.07924561 46.65149536 31.07924561 46.37963867 30.00439453 C46 28 46 28 46 24 C45.34 24 44.68 24 44 24 C43.85884766 25.52560547 43.85884766 25.52560547 43.71484375 27.08203125 C42.96573985 33.06038062 41.47485112 38.87373019 40.04370117 44.71899414 C39.56137925 46.69208478 39.08785997 48.66714509 38.61523438 50.64257812 C37.32503744 55.95884414 36.03707571 60.90731073 34 66 C28.39 66 22.78 66 17 66 C16.63648437 64.51113281 16.27296875 63.02226562 15.8984375 61.48828125 C12.95441284 49.52138449 9.81989276 37.64007317 6.38671875 25.8046875 C5.1098726 21.40207277 3.87756371 16.98933663 2.6875 12.5625 C2.22923828 10.86287109 2.22923828 10.86287109 1.76171875 9.12890625 C1.02866266 6.11773739 0.50949124 3.05694747 0 0 Z " fill="#F1F7FD" transform="translate(64,68)"/>
<path d="M0 0 C0.97554621 2.63397478 1.12553386 3.69344413 0.04042149 6.3433075 C-1.0253287 9.06467626 -1.25668206 10.91957762 -1.27174377 13.81958008 C-1.2814621 14.76161285 -1.29118042 15.70364563 -1.30119324 16.67422485 C-1.30178238 17.69567596 -1.30237152 18.71712708 -1.30297852 19.76953125 C-1.31141785 20.85462982 -1.31985718 21.93972839 -1.32855225 23.05770874 C-1.35433096 26.64264364 -1.36647138 30.22749617 -1.37890625 33.8125 C-1.39508141 36.30444999 -1.41226142 38.79639364 -1.43040466 41.28833008 C-1.47143391 47.17894189 -1.50443907 53.06955125 -1.53287882 58.96023655 C-1.58690933 70.13220664 -1.65510486 81.30407727 -1.73081779 92.47592163 C-1.75364688 96.14580463 -1.76992133 99.81567582 -1.78553772 103.4855957 C-1.79894581 105.73388803 -1.81256074 107.98217914 -1.82641602 110.23046875 C-1.82902939 111.25191986 -1.83164276 112.27337097 -1.83433533 113.32577515 C-1.84123383 114.26780792 -1.84813232 115.2098407 -1.85523987 116.18041992 C-1.85909478 116.99524338 -1.8629497 117.81006683 -1.86692142 118.64958191 C-2.00992104 121.17522423 -2.4493214 123.53373486 -3 126 C-3.66 126 -4.32 126 -5 126 C-5.07025543 111.56975709 -5.12286904 97.13954092 -5.15543652 82.70916176 C-5.17086863 76.00803083 -5.19226595 69.3070222 -5.22631836 62.60595703 C-5.25899435 56.13501229 -5.27687052 49.6641781 -5.28463173 43.1931572 C-5.29016041 40.72850175 -5.30095652 38.26385212 -5.31719017 35.79924393 C-5.3390735 32.33819916 -5.34196231 28.87760709 -5.34057617 25.41650391 C-5.351362 24.40517395 -5.36214783 23.39384399 -5.3732605 22.35186768 C-5.33831428 14.24972169 -3.77295881 7.19760451 0 0 Z " fill="#2563D1" transform="translate(23,32)"/>
<path d="M0 0 C0.98109741 -0.0071553 1.96219482 -0.01431061 2.97302246 -0.02168274 C4.04834229 -0.02437164 5.12366211 -0.02706055 6.23156738 -0.02983093 C7.36525757 -0.03640213 8.49894775 -0.04297333 9.66699219 -0.04974365 C13.42875228 -0.06949493 17.19047235 -0.08114553 20.95227051 -0.09111023 C22.23763199 -0.09518576 23.52299347 -0.09926128 24.8473053 -0.10346031 C30.95287469 -0.12217941 37.05842405 -0.13674039 43.16401625 -0.14507228 C50.1913019 -0.15482193 57.21827065 -0.1810805 64.24544477 -0.22157317 C70.34671396 -0.25551197 76.44785129 -0.26722904 82.54920959 -0.27127647 C85.13585046 -0.27613671 87.72248808 -0.28773449 90.30906677 -0.30631447 C93.93973672 -0.33076592 97.56958961 -0.32972892 101.20031738 -0.32279968 C102.25944336 -0.33560974 103.31856934 -0.3484198 104.40979004 -0.36161804 C114.78876999 -0.28981083 123.14234883 2.67423368 131.23352051 9.14717102 C130.24352051 9.47717102 129.25352051 9.80717102 128.23352051 10.14717102 C125.23352051 8.14717102 125.23352051 8.14717102 123.36633301 6.55732727 C120.80867592 4.86627561 119.14722004 4.72526757 116.10852051 4.58467102 C111.44256887 4.35621938 111.44256887 4.35621938 109.23352051 2.14717102 C107.19512175 1.84666861 107.19512175 1.84666861 104.81939697 1.89993286 C103.8913475 1.89573837 102.96329803 1.89154388 102.00712585 1.88722229 C100.47515312 1.89565155 100.47515312 1.89565155 98.91223145 1.9042511 C97.83893082 1.90235275 96.76563019 1.90045441 95.6598053 1.89849854 C92.0957621 1.89478051 88.53192075 1.90551231 84.96789551 1.91670227 C82.49648055 1.91789395 80.02506513 1.91834726 77.5536499 1.91809082 C72.36504291 1.91965763 67.17650472 1.9279603 61.98791504 1.94136047 C55.33875659 1.9583151 48.68967613 1.96217589 42.04049301 1.96141529 C36.9326912 1.96168741 31.82490597 1.96717601 26.71710968 1.97441673 C24.26591365 1.97759851 21.81471574 1.97956966 19.36351776 1.98031044 C15.93310865 1.98248119 12.50277958 1.99124249 9.0723877 2.00190735 C7.55256035 2.00122757 7.55256035 2.00122757 6.00202942 2.00053406 C1.29952198 2.0218856 -3.14213579 2.16972502 -7.76647949 3.14717102 C-7.76647949 2.48717102 -7.76647949 1.82717102 -7.76647949 1.14717102 C-4.86830226 0.18111194 -3.01459776 0.01510084 0 0 Z " fill="#2161D1" transform="translate(54.7664794921875,11.852828979492188)"/>
<path d="M0 0 C0.66 0 1.32 0 2 0 C2.33776684 1.7491497 2.67003671 3.49936145 3 5.25 C3.185625 6.22453125 3.37125 7.1990625 3.5625 8.203125 C4 11 4 11 4 15 C4.66 15 5.32 15 6 15 C6.33 15.99 6.66 16.98 7 18 C7.433125 17.13375 7.433125 17.13375 7.875 16.25 C8.55844765 14.88310469 9.2617441 13.52558882 10 12.1875 C11.35804205 9.21678302 12.15226384 6.14873433 13 3 C14.33996754 6.73759491 13.6665074 9.48368226 12.78515625 13.296875 C12.51123047 14.50214844 12.23730469 15.70742187 11.95507812 16.94921875 C11.66052734 18.20347656 11.36597656 19.45773438 11.0625 20.75 C10.77181641 22.01972656 10.48113281 23.28945312 10.18164062 24.59765625 C9.46246845 27.73371851 8.73496575 30.86760828 8 34 C6.1558911 31.23383664 5.61865831 29.95742953 5 26.83203125 C4.835 26.02056641 4.67 25.20910156 4.5 24.37304688 C4.335 23.52806641 4.17 22.68308594 4 21.8125 C3.66816785 20.15204304 3.33484789 18.49188268 3 16.83203125 C2.75636719 15.61700928 2.75636719 15.61700928 2.5078125 14.37744141 C2.02362274 12.11059529 1.46505812 9.87800464 0.875 7.63671875 C0 4 0 4 0 0 Z " fill="#2268DC" transform="translate(83,81)"/>
<path d="M0 0 C0.66 0 1.32 0 2 0 C3.02734944 3.91131778 4.04218843 7.82564872 5.0456543 11.74316406 C5.38860093 13.07477547 5.73492513 14.40552183 6.0847168 15.73535156 C6.58753998 17.64936984 7.07713995 19.56684648 7.56640625 21.484375 C7.86490479 22.63647461 8.16340332 23.78857422 8.47094727 24.97558594 C8.96842828 27.81951526 8.98704647 29.33354403 8 32 C5.31780178 26.63560356 4.6847405 22.98993047 5 17 C4.34 17 3.68 17 3 17 C2.67 17.99 2.34 18.98 2 20 C1.34 20 0.68 20 0 20 C-0.33 19.01 -0.66 18.02 -1 17 C-1.66 16.67 -2.32 16.34 -3 16 C-2.40984815 10.49191603 -1.43336231 5.35121931 0 0 Z " fill="#1467ED" transform="translate(108,92)"/>
<path d="M0 0 C0.99 0.33 1.98 0.66 3 1 C-0.79390955 6.14013552 -5.18437692 10.20109526 -11 13 C-14 12 -14 12 -15 11 C-15.33 10.34 -15.66 9.68 -16 9 C-12.25 6 -12.25 6 -10 6 C-10 5.34 -10 4.68 -10 4 C-8.68 4 -7.36 4 -6 4 C-6 4.66 -6 5.32 -6 6 C-2.26360784 4.75453595 -1.81243487 3.36595047 0 0 Z " fill="#1964DF" transform="translate(188,176)"/>
<path d="M0 0 C0.33 0 0.66 0 1 0 C1.27748324 5.17968712 0.97042163 8.77367037 -1.06640625 13.63671875 C-3.04231633 18.6384995 -4.45409356 23.85221003 -6 29 C-6.98794032 25.90993021 -6.98387601 24.01922148 -6.07421875 20.91796875 C-5.85443359 20.15033203 -5.63464844 19.38269531 -5.40820312 18.59179688 C-5.17037109 17.79837891 -4.93253906 17.00496094 -4.6875 16.1875 C-4.46126953 15.40568359 -4.23503906 14.62386719 -4.00195312 13.81835938 C-3.55539642 12.27793177 -3.10480794 10.73866637 -2.64990234 9.20068359 C-1.74590524 6.13959048 -0.87305643 3.0700435 0 0 Z " fill="#3572DA" transform="translate(150,82)"/>
<path d="M0 0 C0.66 0 1.32 0 2 0 C2.13277344 0.63808594 2.26554687 1.27617188 2.40234375 1.93359375 C2.57894531 2.75988281 2.75554687 3.58617188 2.9375 4.4375 C3.19853516 5.67306641 3.19853516 5.67306641 3.46484375 6.93359375 C3.80752994 8.97661204 3.80752994 8.97661204 5 10 C6.57846031 15.36906939 7.23733045 20.42273453 7 26 C5.20958752 22.76168874 4.26249761 19.58584892 3.375 16 C3.11460938 14.96875 2.85421875 13.9375 2.5859375 12.875 C2 10 2 10 2 6 C1.34 6 0.68 6 0 6 C0 4.02 0 2.04 0 0 Z " fill="#C4DDF8" transform="translate(108,86)"/>
<path d="M0 0 C0.66 0 1.32 0 2 0 C2.99 3.3 3.98 6.6 5 10 C9.62 9.67 14.24 9.34 19 9 C19 9.66 19 10.32 19 11 C13.39 11 7.78 11 2 11 C1.34 7.37 0.68 3.74 0 0 Z " fill="#DBF3FE" transform="translate(79,123)"/>
<path d="M0 0 C0.66 0 1.32 0 2 0 C2.33776684 1.7491497 2.67003671 3.49936145 3 5.25 C3.185625 6.22453125 3.37125 7.1990625 3.5625 8.203125 C4 11 4 11 4 15 C4.66 15 5.32 15 6 15 C6 18.3 6 21.6 6 25 C5.67 25 5.34 25 5 25 C4.15924782 21.58511508 3.32870007 18.16782787 2.5 14.75 C2.26152344 13.78191406 2.02304688 12.81382813 1.77734375 11.81640625 C1.55175781 10.88183594 1.32617188 9.94726562 1.09375 8.984375 C0.77954102 7.69611816 0.77954102 7.69611816 0.45898438 6.38183594 C0 4 0 4 0 0 Z " fill="#2C6CD8" transform="translate(83,81)"/>
<path d="M0 0 C2.53849129 3.80773693 3.47302797 7.56055664 4.6875 11.9375 C5.04424805 13.15469727 5.04424805 13.15469727 5.40820312 14.39648438 C5.62798828 15.18216797 5.84777344 15.96785156 6.07421875 16.77734375 C6.27619873 17.49140381 6.47817871 18.20546387 6.6862793 18.94116211 C7.03828103 21.25122486 6.70940527 22.79230597 6 25 C6 24.34 6 23.68 6 23 C5.34 23 4.68 23 4 23 C3.32667007 19.91808296 2.66251141 16.8342592 2 13.75 C1.80921875 12.87730469 1.6184375 12.00460938 1.421875 11.10546875 C1.24140625 10.26113281 1.0609375 9.41679688 0.875 8.546875 C0.70742187 7.77182617 0.53984375 6.99677734 0.3671875 6.19824219 C0 4 0 4 0 0 Z " fill="#3672DB" transform="translate(69,89)"/>
<path d="M0 0 C2.33058639 3.49587959 3.19132 6.92041315 4.1875 10.9375 C4.47270508 12.01161133 4.47270508 12.01161133 4.76367188 13.10742188 C5.6919477 16.80339833 6.1215946 19.36551019 5 23 C2.31780178 17.63560356 1.6847405 13.98993047 2 8 C1.34 8 0.68 8 0 8 C0 5.36 0 2.72 0 0 Z " fill="#3571DC" transform="translate(111,101)"/>
<path d="M0 0 C0.66 0 1.32 0 2 0 C2.33 2.64 2.66 5.28 3 8 C2.34 7.67 1.68 7.34 1 7 C0.34 9.97 -0.32 12.94 -1 16 C-1.66 16 -2.32 16 -3 16 C-2.40984815 10.49191603 -1.43336231 5.35121931 0 0 Z " fill="#3875DB" transform="translate(108,92)"/>
<path d="M0 0 C1.9507829 2.92617435 2.71513462 5.02044581 3.625 8.375 C3.88539062 9.31085938 4.14578125 10.24671875 4.4140625 11.2109375 C4.97925133 13.90123635 5.10954217 16.26144571 5 19 C4.34 19 3.68 19 3 19 C2.67 17.02 2.34 15.04 2 13 C1.34 13 0.68 13 0 13 C0 8.71 0 4.42 0 0 Z " fill="#3371DE" transform="translate(76,115)"/>
<path d="M0 0 C0.33 0 0.66 0 1 0 C0.37679879 6.43974581 -0.64008262 12.67572401 -2 19 C-2.33 19 -2.66 19 -3 19 C-3.66 15.04 -4.32 11.08 -5 7 C-4.01 7.33 -3.02 7.66 -2 8 C-1.34 5.36 -0.68 2.72 0 0 Z " fill="#306BD1" transform="translate(130,97)"/>
<path d="M0 0 C2 3 2 3 2 6 C2.66 6 3.32 6 4 6 C4 5.34 4 4.68 4 4 C4.66 4 5.32 4 6 4 C6.125 6.875 6.125 6.875 6 10 C5.34 10.66 4.68 11.32 4 12 C3.34 12 2.68 12 2 12 C0.86235649 7.73383684 0 4.43513689 0 0 Z " fill="#1E69E3" transform="translate(80,68)"/>
<path d="M0 0 C1.37527225 3.71323507 0.45178803 5.43230814 -1 9 C-1.28335716 11.42992135 -1.48803459 13.8699502 -1.625 16.3125 C-1.69976563 17.56675781 -1.77453125 18.82101563 -1.8515625 20.11328125 C-1.90054687 21.06589844 -1.94953125 22.01851562 -2 23 C-2.33 23 -2.66 23 -3 23 C-4.26481821 14.22876069 -4.16779266 7.92417231 0 0 Z " fill="#1D60D3" transform="translate(23,32)"/>
<path d="M0 0 C1.3805087 3.76668598 0.59568159 6.44789173 -0.4375 10.25 C-0.72496094 11.32765625 -1.01242188 12.4053125 -1.30859375 13.515625 C-1.53675781 14.33546875 -1.76492187 15.1553125 -2 16 C-2.33 16 -2.66 16 -3 16 C-3.37952295 9.80112515 -2.8352113 5.5522888 0 0 Z " fill="#2B6DDB" transform="translate(134,81)"/>
<path d="M0 0 C0 3.11227195 -0.45627049 5.94152152 -1 9 C-2.65 8.67 -4.3 8.34 -6 8 C-5.34 6.68 -4.68 5.36 -4 4 C-3.34 4 -2.68 4 -2 4 C-1.34 2.68 -0.68 1.36 0 0 Z " fill="#1A5AD9" transform="translate(30,23)"/>
<path d="M0 0 C4.3177458 0.50797009 8.03302114 1.19682779 12 3 C12 3.66 12 4.32 12 5 C10.55989519 4.74337755 9.1229313 4.46909179 7.6875 4.1875 C6.88699219 4.03667969 6.08648437 3.88585937 5.26171875 3.73046875 C2.76554413 2.92427764 1.67577894 1.97947998 0 0 Z " fill="#2160CD" transform="translate(38,186)"/>
<path d="M0 0 C0.66 0 1.32 0 2 0 C2.45375 0.61875 2.9075 1.2375 3.375 1.875 C4.83087548 4.10894947 4.83087548 4.10894947 7.0625 5 C9.49109689 6.25346936 10.0046023 7.51150574 11 10 C7.03519703 8.32258336 4.15958323 5.87873138 1 3 C0.67 2.01 0.34 1.02 0 0 Z " fill="#1F5EC5" transform="translate(27,176)"/>
<path d="M0 0 C0.33 0 0.66 0 1 0 C1.08114106 1.77007714 1.13925505 3.54122098 1.1875 5.3125 C1.23970703 6.79169922 1.23970703 6.79169922 1.29296875 8.30078125 C1 11 1 11 -0.51171875 12.85546875 C-1.00285156 13.23316406 -1.49398437 13.61085938 -2 14 C-1.85795259 12.41632253 -1.71119847 10.83306682 -1.5625 9.25 C-1.48128906 8.36828125 -1.40007812 7.4865625 -1.31640625 6.578125 C-1.03761535 4.30649548 -0.61209423 2.20148177 0 0 Z " fill="#BDD7F8" transform="translate(130,102)"/>
<path d="M0 0 C1.66666667 0 3.33333333 0 5 0 C5.33 1.65 5.66 3.3 6 5 C5.01 5.33 4.02 5.66 3 6 C0 2.25 0 2.25 0 0 Z " fill="#175FD6" transform="translate(23,170)"/>
<path d="M0 0 C0.33 0 0.66 0 1 0 C1.08131463 1.43655854 1.13933559 2.8744483 1.1875 4.3125 C1.23970703 5.51326172 1.23970703 5.51326172 1.29296875 6.73828125 C0.93801608 9.47851584 0.10633718 10.29171079 -2 12 C-1 3.42857143 -1 3.42857143 0 0 Z " fill="#B6D3F9" transform="translate(98,80)"/>
<path d="M0 0 C0.99 0.33 1.98 0.66 3 1 C1.35 2.98 -0.3 4.96 -2 7 C-2.66 6.67 -3.32 6.34 -4 6 C-2.68 4.02 -1.36 2.04 0 0 Z " fill="#2260C5" transform="translate(188,176)"/>
<path d="M0 0 C2.0343459 1.41519715 2.90410393 2.54982123 3.421875 4.98046875 C3.66273952 6.98176954 3.83532741 8.9909944 4 11 C0 5 0 5 0 0 Z " fill="#2968DA" transform="translate(113,113)"/>
<path d="M0 0 C0.66 0 1.32 0 2 0 C2.33 2.64 2.66 5.28 3 8 C2.01 7.67 1.02 7.34 0 7 C0 4.69 0 2.38 0 0 Z " fill="#316DD3" transform="translate(108,92)"/>
</svg>
