<?xml version="1.0" encoding="UTF-8"?>
<svg version="1.1" xmlns="http://www.w3.org/2000/svg" width="335" height="335">
<path d="M0 0 C1.66111357 -0.00543752 3.32222231 -0.0125692 4.98332214 -0.02124023 C9.44417369 -0.03928318 13.90465007 -0.03248589 18.36550713 -0.01972389 C23.06517315 -0.00949639 27.76481006 -0.01901632 32.46447754 -0.02526855 C40.35218997 -0.03251688 48.2397519 -0.02303165 56.12744141 -0.00390625 C65.20708674 0.01785703 74.2863726 0.01080366 83.36600924 -0.01121187 C91.20433996 -0.0294466 99.04256337 -0.03188498 106.88090849 -0.0214572 C111.54369708 -0.01526638 116.2063175 -0.01426348 120.86909485 -0.02760315 C125.25575137 -0.03927948 129.64195085 -0.03092446 134.02855873 -0.00802612 C135.62472594 -0.0028012 137.22093259 -0.00414398 138.81708336 -0.01307678 C158.71350678 -0.11403863 176.52439251 4.43321439 191.04101562 18.71289062 C205.21420699 33.43988252 209.36286414 49.30179436 209.2578125 69.31054688 C209.26324466 71.06475401 209.27037341 72.81895657 209.27905273 74.57315063 C209.29715911 79.30049126 209.29027144 84.02747946 209.27753639 88.75482559 C209.26734249 93.72417332 209.27681969 98.69349276 209.28308105 103.6628418 C209.29033897 112.00477462 209.28081865 120.34656536 209.26171875 128.68847656 C209.23995362 138.3049073 209.24700631 147.9209987 209.26902437 157.53742123 C209.28723144 165.82404687 209.28971084 174.11057092 209.2792697 182.39721012 C209.27306385 187.33325314 209.27211842 192.26913715 209.28541565 197.20516968 C209.29705113 201.84785053 209.28880926 206.4900979 209.26583862 211.13273239 C209.26059235 212.826911 209.26199444 214.52112669 209.27088928 216.21529007 C209.36971017 236.96540608 203.18746817 251.8243388 188.74023438 266.51757812 C188.175625 267.12730469 187.61101562 267.73703125 187.02929688 268.36523438 C185.74023438 269.51757812 185.74023438 269.51757812 183.74023438 269.51757812 C183.74023438 270.17757813 183.74023438 270.83757812 183.74023438 271.51757812 C181.37528916 272.8106196 179.00069747 274.07584293 176.61523438 275.33007812 C175.96941406 275.68650391 175.32359375 276.04292969 174.65820312 276.41015625 C162.71605858 282.60869794 149.81248377 282.96052181 136.67578125 282.90576172 C135.01172036 282.90983764 133.34766217 282.9151852 131.68360901 282.92169189 C127.20629928 282.93525007 122.72919929 282.93011491 118.25188637 282.92055464 C113.54059965 282.91289787 108.82932951 282.92002021 104.11804199 282.92471313 C96.21000991 282.93015331 88.3020622 282.92302492 80.39404297 282.90869141 C71.28377949 282.89236827 62.17371752 282.89765801 53.06345892 282.91417062 C45.20652986 282.92783525 37.34966106 282.92968093 29.49272394 282.92185462 C24.81546386 282.91720534 20.13829813 282.91647688 15.46104431 282.92646408 C11.06136192 282.93520435 6.6619364 282.92898463 2.26228142 282.91178131 C0.65882224 282.90785382 -0.944659 282.90888536 -2.54810905 282.91556931 C-15.79861324 282.9656622 -28.31412647 281.85384405 -40.13476562 275.33007812 C-41.18470703 274.77803711 -41.18470703 274.77803711 -42.25585938 274.21484375 C-43.93190448 273.33090215 -45.59718829 272.42659768 -47.25976562 271.51757812 C-47.25976562 270.85757812 -47.25976562 270.19757813 -47.25976562 269.51757812 C-47.83210938 269.26492188 -48.40445313 269.01226562 -48.99414062 268.75195312 C-61.01111104 262.20477614 -67.6270045 247.89191364 -71.39797783 235.36306381 C-73.00095039 228.21024956 -72.8245275 221.05472313 -72.79321289 213.75634766 C-72.80028595 212.0053841 -72.80903674 210.25442665 -72.81932068 208.503479 C-72.84167025 203.78428221 -72.83890878 199.06542309 -72.82999921 194.34619379 C-72.8248595 190.39029007 -72.83220602 186.43444814 -72.83947128 182.47855079 C-72.85642485 173.13782568 -72.85295083 163.79726411 -72.83618164 154.45654297 C-72.81926764 144.85600471 -72.83509536 135.25592141 -72.86740452 125.65543282 C-72.89419117 117.3789623 -72.90135193 109.1026326 -72.89288944 100.82612312 C-72.88798628 95.89779487 -72.89003309 90.96974004 -72.91067696 86.04144669 C-72.92917719 81.4036167 -72.9229023 76.76643541 -72.89847755 72.12863922 C-72.89351464 70.43852173 -72.89684003 68.74835355 -72.90962601 67.05827713 C-73.04291462 47.90701113 -67.58198817 33.05562561 -54.50585938 18.74414062 C-48.22467791 12.51757812 -48.22467791 12.51757812 -45.25976562 12.51757812 C-45.25976562 11.85757813 -45.25976562 11.19757812 -45.25976562 10.51757812 C-30.6771697 2.23201226 -16.49558403 -0.09231696 0 0 Z " fill="#1566F0" transform="translate(99.259765625,27.482421875)"/>
<path d="M0 0 C6.93 0 13.86 0 21 0 C22.98600449 7.67008632 24.92988695 15.25937758 26.3125 23.0625 C27.84013701 31.55411354 29.72786594 39.96007832 31.625 48.375 C31.86230331 49.43402023 31.86230331 49.43402023 32.10440063 50.51443481 C32.55871122 52.53897936 33.01690031 54.56260206 33.4765625 56.5859375 C33.74549316 57.7723584 34.01442383 58.9587793 34.29150391 60.18115234 C34.87420495 62.92815762 34.87420495 62.92815762 36 65 C36.14145447 64.46954575 36.28290894 63.93909149 36.4286499 63.39256287 C38.7467041 54.69985962 41.0647583 46.00715637 43.3828125 37.31445312 C43.64839966 36.31829987 43.91398682 35.32214661 44.18762207 34.29580688 C44.71740867 32.30951299 45.24759863 30.32332663 45.77819824 28.33724976 C46.93245585 24.0151508 48.08324647 19.69237349 49.21289062 15.36376953 C49.48362396 14.33160057 49.48362396 14.33160057 49.75982666 13.27857971 C50.22532442 11.50150675 50.68752582 9.72357119 51.14941406 7.94555664 C52 5 52 5 54 0 C61.92 0 69.84 0 78 0 C79.83485095 4.89293587 81.41125384 9.15132206 82.60986328 14.12475586 C82.88669952 15.26210678 83.16353577 16.3994577 83.44876099 17.5712738 C83.73637299 18.77365189 84.02398499 19.97602997 84.3203125 21.21484375 C84.78485446 23.12642801 85.24940011 25.03801139 85.71417046 26.94954014 C86.35828871 29.60366368 86.9980068 32.25883903 87.63757324 34.9140625 C88.76426453 39.5912563 89.89361465 44.2677969 91.0295105 48.94276428 C91.63291271 51.42810619 92.23287223 53.91428683 92.82913208 56.40135193 C93.099664 57.51663773 93.37019592 58.63192352 93.64892578 59.78100586 C93.88636505 60.76725449 94.12380432 61.75350311 94.36843872 62.76963806 C94.79103225 64.9535999 94.79103225 64.9535999 96 66 C96.17317245 65.21739304 96.34634491 64.43478607 96.52476501 63.62846375 C98.15635693 56.25625514 99.78947361 48.88438676 101.42430782 41.51289654 C102.26475401 37.72305802 103.1046082 33.93309033 103.94311523 30.14282227 C104.75221071 26.48560488 105.56285369 22.82873368 106.37457466 19.17209816 C106.68412069 17.77636771 106.99310716 16.38051304 107.30152702 14.98453331 C107.7333131 13.0306215 108.16726632 11.07718898 108.60131836 9.1237793 C108.97105019 7.4549897 108.97105019 7.4549897 109.34825134 5.75248718 C110 3 110 3 111 0 C117.6 0 124.2 0 131 0 C130.34951908 5.20384739 129.6564938 9.97166059 128.51171875 15.03515625 C128.36724808 15.67633896 128.2227774 16.31752167 128.07392883 16.97813416 C127.76899646 18.32723354 127.4621867 19.67590986 127.15356445 21.02416992 C126.69433963 23.03258694 126.24220248 25.04249834 125.79101562 27.05273438 C124.02559689 34.85998659 122.07176172 42.5955191 119.97973633 50.32299805 C118.38305937 56.31541062 116.94202114 62.34383848 115.5 68.375 C115.19884277 69.62635742 114.89768555 70.87771484 114.58740234 72.16699219 C113.27109137 77.64607466 111.96445764 83.12697457 110.6953125 88.6171875 C110.51033203 89.41592285 110.32535156 90.2146582 110.13476562 91.03759766 C109.80440894 92.47135833 109.47737492 93.90589027 109.15429688 95.34130859 C108.10906378 99.89093622 108.10906378 99.89093622 107 101 C105.43827255 101.08685603 103.87270656 101.10702219 102.30859375 101.09765625 C101.36435547 101.09443359 100.42011719 101.09121094 99.44726562 101.08789062 C98.45404297 101.07951172 97.46082031 101.07113281 96.4375 101.0625 C95.44041016 101.05798828 94.44332031 101.05347656 93.41601562 101.04882812 C90.94395151 101.03700007 88.47200482 101.02051849 86 101 C83.36336171 93.46073078 81.23326654 85.80592917 79.14819336 78.10083008 C78.57006237 75.96543252 77.98751035 73.83127995 77.40429688 71.69726562 C74.99282871 62.84354817 72.70749339 53.96390099 70.5085144 45.0552063 C69.59627855 41.36832378 68.67230656 37.68437349 67.75 34 C67.41141029 32.64584534 67.07286396 31.29167984 66.734375 29.9375 C66.49203125 28.968125 66.2496875 27.99875 66 27 C64.43639754 32.7705352 62.87411875 38.54142768 61.3125 44.3125 C61.08213043 45.16356323 60.85176086 46.01462646 60.6144104 46.89147949 C58.10388108 56.16873427 55.60107579 65.44694913 53.1875 74.75 C50.98546118 83.22639435 48.50994484 91.60961297 46 100 C38.41 100 30.82 100 23 100 C22.50113281 97.79957031 22.00226563 95.59914063 21.48828125 93.33203125 C20.7653302 90.15832459 20.03925123 86.98533848 19.3125 83.8125 C19.12002686 82.97186005 18.92755371 82.13122009 18.72924805 81.2651062 C16.09401718 69.78354726 13.36466828 58.32782553 10.54296875 46.890625 C10.24973221 45.70164108 9.95649567 44.51265717 9.65437317 43.28764343 C8.19570701 37.38162076 6.72940037 31.47758468 5.25512695 25.57543945 C4.71168521 23.38494478 4.16830664 21.19443444 3.625 19.00390625 C3.2489991 17.51235016 3.2489991 17.51235016 2.86540222 15.99066162 C2.63396011 15.05474182 2.40251801 14.11882202 2.1640625 13.15454102 C1.96248535 12.34839859 1.7609082 11.54225616 1.55322266 10.71168518 C0.83201464 7.17660022 0.44750534 3.58004269 0 0 Z " fill="#F8FBFD" transform="translate(102,117)"/>
<path d="M0 0 C1.66022542 -0.00599416 3.32044806 -0.01280173 4.98066711 -0.02035522 C9.46655846 -0.03793498 13.95237337 -0.04270728 18.43829584 -0.0439868 C21.2489605 -0.04541384 24.05960607 -0.04969394 26.87026596 -0.05498123 C36.69884207 -0.073457 46.52736413 -0.08165518 56.35595703 -0.08007812 C65.47976038 -0.07887833 74.60332657 -0.09995528 83.72706997 -0.13156545 C91.59073743 -0.15782716 99.45432792 -0.16844125 107.31803882 -0.16716731 C112.00106276 -0.16666045 116.68387584 -0.17218885 121.36685562 -0.19352341 C125.7780183 -0.21307274 130.18877261 -0.21291786 134.59995079 -0.19849014 C136.20580209 -0.19642125 137.81168009 -0.2009862 139.41748619 -0.21321106 C154.02908267 -0.31711522 167.57794535 1.757355 180.42138672 9.29052734 C176.74509061 10.64223341 174.68029745 9.90760194 171.10888672 8.47802734 C166.90732625 6.85034507 162.77271795 5.45088234 158.42138672 4.29052734 C158.42138672 3.63052734 158.42138672 2.97052734 158.42138672 2.29052734 C135.23030798 2.39761888 112.03926285 2.51035335 88.84824467 2.6298666 C78.08105128 2.68522197 67.31385458 2.7387077 56.54663086 2.7878418 C47.16551344 2.83065536 37.78442065 2.8769261 28.40334123 2.92740589 C23.43289899 2.95402969 18.4624617 2.97888324 13.49199104 2.99960136 C8.81928155 3.01913285 4.14661903 3.04326596 -0.52604866 3.07101822 C-2.24621862 3.0804072 -3.96639891 3.08807578 -5.68658447 3.09394646 C-8.02470519 3.1021764 -10.36271093 3.11644396 -12.70079041 3.13230896 C-14.01250182 3.13876151 -15.32421324 3.14521406 -16.67567348 3.15186214 C-19.47154228 2.95926853 -19.47154228 2.95926853 -20.57861328 4.29052734 C-23.24920179 4.43167896 -25.90293566 4.33299842 -28.57861328 4.29052734 C-22.11345676 -2.17462918 -8.53960855 -0.00618351 0 0 Z " fill="#14449B" transform="translate(98.57861328125,27.70947265625)"/>
<path d="M0 0 C1.97956441 0.14033111 3.95865141 0.2874123 5.9375 0.4375 C7.03964844 0.51871094 8.14179687 0.59992188 9.27734375 0.68359375 C12 1 12 1 13 2 C15.2529102 2.09706134 17.50893179 2.12186638 19.76393127 2.12025452 C20.47940736 2.12110894 21.19488345 2.12196337 21.93204063 2.12284368 C24.34737814 2.12450058 26.76264733 2.11897371 29.17797852 2.11352539 C30.90224201 2.11324354 32.62650562 2.11340121 34.35076904 2.1139679 C39.04685147 2.11425595 43.74290859 2.10835802 48.43898511 2.10139394 C53.34107159 2.09516164 58.24315858 2.0945567 63.14524841 2.09336853 C72.43482896 2.09025485 81.7243978 2.08204096 91.01397318 2.07201904 C101.5869496 2.06085905 112.15992657 2.05534774 122.73290741 2.05032361 C144.48861149 2.03985838 166.24430501 2.02225823 188 2 C188 1.34 188 0.68 188 0 C189.2065625 0.2784375 189.2065625 0.2784375 190.4375 0.5625 C194.78253084 1.09610028 198.68989724 0.6225704 203 0 C196.70126238 6.29873762 183.01889032 5.38669559 174.56175232 5.40658569 C173.01968266 5.40075597 171.47761416 5.39461167 169.93554688 5.38818359 C168.27148598 5.39225952 166.6074278 5.39760707 164.94337463 5.40411377 C160.4660649 5.41767194 155.98896491 5.41253679 151.51165199 5.40297651 C146.80036527 5.39531975 142.08909513 5.40244208 137.37780762 5.40713501 C129.46977554 5.41257518 121.56182783 5.4054468 113.65380859 5.39111328 C104.54354512 5.37479014 95.43348315 5.38007989 86.32322454 5.3965925 C78.46629549 5.41025713 70.60942668 5.41210281 62.75248957 5.40427649 C58.07522949 5.39962722 53.39806375 5.39889875 48.72080994 5.40888596 C44.32112754 5.41762622 39.92170202 5.4114065 35.52204704 5.39420319 C33.91858786 5.3902757 32.31510663 5.39130723 30.71165657 5.39799118 C20.89695416 5.43509519 11.44739498 4.97834635 2 2 C1.34 1.34 0.68 0.68 0 0 Z " fill="#1A53B4" transform="translate(66,305)"/>
<path d="M0 0 C0.33 0 0.66 0 1 0 C1 2.97 1 5.94 1 9 C0.34 9 -0.32 9 -1 9 C-1.0233711 31.28784684 -1.04099988 53.57569166 -1.05181217 75.86354828 C-1.05696617 86.21242177 -1.06399182 96.56128765 -1.07543945 106.91015625 C-1.08541364 115.93131214 -1.09185995 124.9524625 -1.09408849 133.97362375 C-1.09539095 138.74924306 -1.0984474 143.52484658 -1.10573006 148.30046082 C-1.11253341 152.79834316 -1.11460818 157.29620327 -1.11310768 161.79409027 C-1.11338207 163.44198986 -1.11536154 165.08989021 -1.11920547 166.73778534 C-1.12421019 168.99461011 -1.12297346 171.25135185 -1.12025452 173.50817871 C-1.12163721 175.39969791 -1.12163721 175.39969791 -1.12304783 177.32942963 C-0.99032074 181.28873668 -0.52831906 185.07551098 0 189 C0.05915294 190.6657469 0.08854052 192.33340656 0.0625 194 C0.05347656 194.763125 0.04445313 195.52625 0.03515625 196.3125 C0.02355469 196.869375 0.01195312 197.42625 0 198 C-0.33 198 -0.66 198 -1 198 C-2.50894795 192.6051517 -3.25183302 187.91489781 -3.26069641 182.27175903 C-3.26452196 181.53693987 -3.26834751 180.8021207 -3.27228898 180.04503429 C-3.28253104 177.60563171 -3.27864373 175.16646838 -3.2746582 172.72705078 C-3.27900956 170.96871729 -3.28419412 169.21038569 -3.29014587 167.45205688 C-3.3035017 162.69165894 -3.30411834 157.93134055 -3.30158257 153.17092752 C-3.30051051 149.18996638 -3.30540226 145.20902118 -3.310188 141.22806346 C-3.32127143 131.83253141 -3.32172718 122.43703933 -3.31567383 113.04150391 C-3.30963472 103.36439693 -3.32194615 93.68743538 -3.3432439 84.01035321 C-3.36088468 75.68737747 -3.36685734 67.36444793 -3.36360615 59.0414542 C-3.36179706 54.07694408 -3.3643921 49.1125377 -3.37832069 44.14804459 C-3.3909347 39.47761649 -3.38892122 34.80741438 -3.37590981 30.13698959 C-3.37355222 28.42864657 -3.37624921 26.72028746 -3.38453293 25.01196289 C-3.42371567 16.29927353 -3.35994778 8.2078715 0 0 Z " fill="#245BB2" transform="translate(30,69)"/>
<path d="M0 0 C0.66 0.33 1.32 0.66 2 1 C0.10019993 4.51463012 -1.56635317 6.89550678 -5 9 C-5.66 9 -6.32 9 -7 9 C-7 9.66 -7 10.32 -7 11 C-7.66 11 -8.32 11 -9 11 C-9.226875 11.886875 -9.45375 12.77375 -9.6875 13.6875 C-11.18459968 17.46589442 -13.1545968 19.1545968 -16 22 C-17.33563611 25.16701423 -17.33563611 25.16701423 -18 28 C-18.99 28 -19.98 28 -21 28 C-17.62497067 16.90134586 -10.57315771 8.61710173 -2 1 C-1.34 0.67 -0.68 0.34 0 0 Z " fill="#1A58CD" transform="translate(52,40)"/>
<path d="M0 0 C5.27945685 -0.12534323 10.55801306 -0.21514362 15.83862305 -0.2746582 C17.62783936 -0.29951511 19.41695732 -0.33341357 21.20581055 -0.37719727 C34.81799442 -0.70156946 48.1979783 -0.44782872 59 9 C53.76963946 8.55486293 49.88902441 7.15859715 45.15625 4.921875 C42.47859762 3.77708159 39.8887887 3.29628602 37 3 C37 2.34 37 1.68 37 1 C24.79 1 12.58 1 0 1 C0 0.67 0 0.34 0 0 Z " fill="#1A57BF" transform="translate(220,29)"/>
<path d="M0 0 C0.66 0 1.32 0 2 0 C0.30127173 11.78968129 -2.41555592 23.3803394 -5 35 C-5.33 35 -5.66 35 -6 35 C-6.33 30.71 -6.66 26.42 -7 22 C-6.34 22 -5.68 22 -5 22 C-5.04125 21.05125 -5.0825 20.1025 -5.125 19.125 C-5 16 -5 16 -3 14 C-2.54188325 12.02764667 -2.54188325 12.02764667 -2.375 9.875 C-2.189375 7.956875 -2.189375 7.956875 -2 6 C-1.34 6 -0.68 6 0 6 C0 4.02 0 2.04 0 0 Z " fill="#1D64E7" transform="translate(207,135)"/>
<path d="M0 0 C0.66 0 1.32 0 2 0 C2.4829607 2.01992995 2.96118112 4.04099354 3.4375 6.0625 C3.83775391 7.75052734 3.83775391 7.75052734 4.24609375 9.47265625 C4.98964803 12.95156567 5.49689596 16.47827172 6 20 C15.9 19.505 15.9 19.505 26 19 C26.33 17.02 26.66 15.04 27 13 C27.66 12.67 28.32 12.34 29 12 C28.34 14.97 27.68 17.94 27 21 C19.41 21 11.82 21 4 21 C3.34 18.2775 2.68 15.555 2 12.75 C1.68675781 11.47334473 1.68675781 11.47334473 1.3671875 10.17089844 C1.20476562 9.4905957 1.04234375 8.81029297 0.875 8.109375 C0.70742187 7.41811523 0.53984375 6.72685547 0.3671875 6.01464844 C0 4 0 4 0 0 Z " fill="#DDF3FE" transform="translate(121,196)"/>
<path d="M0 0 C1.3357457 3.77371512 0.72408671 6.85831347 0.0625 10.75 C-0.13214844 11.92046875 -0.32679688 13.0909375 -0.52734375 14.296875 C-0.68332031 15.18890625 -0.83929688 16.0809375 -1 17 C-0.34 17.33 0.32 17.66 1 18 C0.67 18.66 0.34 19.32 0 20 C-0.66 20 -1.32 20 -2 20 C-2.12375 20.804375 -2.2475 21.60875 -2.375 22.4375 C-2.58125 23.283125 -2.7875 24.12875 -3 25 C-5.55723229 26.27861615 -7.36737102 26.11336609 -10.2265625 26.09765625 C-11.2578125 26.09443359 -12.2890625 26.09121094 -13.3515625 26.08789062 C-14.97191406 26.07532227 -14.97191406 26.07532227 -16.625 26.0625 C-18.25695312 26.05573242 -18.25695312 26.05573242 -19.921875 26.04882812 C-22.61463789 26.03701776 -25.30729188 26.02054778 -28 26 C-28 25.67 -28 25.34 -28 25 C-20.74 25 -13.48 25 -6 25 C-5.34 22.03 -4.68 19.06 -4 16 C-3.30160825 13.14271115 -2.59651943 10.28883788 -1.875 7.4375 C-1.69324219 6.71498047 -1.51148438 5.99246094 -1.32421875 5.24804688 C-0.8839153 3.49842002 -0.4421211 1.74916843 0 0 Z " fill="#4785E9" transform="translate(154,192)"/>
<path d="M0 0 C0.66 0 1.32 0 2 0 C3.4783226 2.95664519 3.06032783 5.74229737 3 9 C5.95867918 8.85953745 8.91682264 8.71287776 11.875 8.5625 C12.71675781 8.52318359 13.55851563 8.48386719 14.42578125 8.44335938 C15.63427734 8.38051758 15.63427734 8.38051758 16.8671875 8.31640625 C17.61081543 8.27974854 18.35444336 8.24309082 19.12060547 8.20532227 C21.08864312 8.10044135 21.08864312 8.10044135 23 7 C24.13350534 4.98330173 24.13350534 4.98330173 25 3 C25.625 4.75 25.625 4.75 26 7 C25.34 8.32 24.68 9.64 24 11 C17.07 11 10.14 11 3 11 C0 2 0 2 0 0 Z " fill="#C0DDFE" transform="translate(185,207)"/>
<path d="M0 0 C5.19593255 9.62979499 9 23.06880585 9 34 C8.34 34 7.68 34 7 34 C7 31.69 7 29.38 7 27 C6.34 27 5.68 27 5 27 C4.896875 26.01 4.79375 25.02 4.6875 24 C4.1836628 20.40011971 3.08600946 17.25115323 1.71875 13.89453125 C-0.0843082 9.14190502 -0.08404048 5.04242852 0 0 Z " fill="#3775DD" transform="translate(170,153)"/>
<path d="M0 0 C2.66665825 5.3333165 3.80528849 10.78322976 5.1875 16.5625 C5.47302734 17.71169922 5.75855469 18.86089844 6.05273438 20.04492188 C6.31763672 21.14513672 6.58253906 22.24535156 6.85546875 23.37890625 C7.09934326 24.3851001 7.34321777 25.39129395 7.59448242 26.42797852 C8 29 8 29 7 32 C3.34890304 25.22165913 1.4881508 17.67773796 2 10 C1.34 10 0.68 10 0 10 C0 6.7 0 3.4 0 0 Z " fill="#3F78DE" transform="translate(107,141)"/>
<path d="M0 0 C1.15710222 4.62840887 0.51389867 6.66462114 -0.8125 11.1875 C-1.16957031 12.43917969 -1.52664062 13.69085938 -1.89453125 14.98046875 C-3 18 -3 18 -5 19 C-5.53093324 17.06524329 -6.04942317 15.12706845 -6.5625 13.1875 C-6.85253906 12.10855469 -7.14257812 11.02960938 -7.44140625 9.91796875 C-8 7 -8 7 -7 4 C-7 4.66 -7 5.32 -7 6 C-6.34 6 -5.68 6 -5 6 C-5 7.65 -5 9.3 -5 11 C-4.34 11 -3.68 11 -3 11 C-2.01 7.37 -1.02 3.74 0 0 Z " fill="#316CD9" transform="translate(142,164)"/>
<path d="M0 0 C2.83077371 2.83077371 3.22708446 6.15627788 4.125 9.9375 C4.30675781 10.66646484 4.48851562 11.39542969 4.67578125 12.14648438 C5.41168435 15.16479369 6 17.88224375 6 21 C6.66 21 7.32 21 8 21 C8.33 20.01 8.66 19.02 9 18 C8.25 25.75 8.25 25.75 6 28 C4.98990734 24.27349238 3.99371446 20.54340541 3 16.8125 C2.71382812 15.75740234 2.42765625 14.70230469 2.1328125 13.61523438 C1.86210937 12.59365234 1.59140625 11.57207031 1.3125 10.51953125 C1.06113281 9.58214111 0.80976563 8.64475098 0.55078125 7.67895508 C0.0077031 5.03746727 -0.1023122 2.68782684 0 0 Z " fill="#3571D4" transform="translate(191,157)"/>
<path d="M0 0 C0.66 0.33 1.32 0.66 2 1 C0.10019993 4.51463012 -1.56635317 6.89550678 -5 9 C-5.66 9 -6.32 9 -7 9 C-7 9.66 -7 10.32 -7 11 C-8.65 11.33 -10.3 11.66 -12 12 C-8.32167983 7.47384007 -4.58913637 3.60575001 0 0 Z " fill="#1759C6" transform="translate(52,40)"/>
<path d="M0 0 C2 1 2 1 2.7019043 2.9777832 C3.37337888 5.75403689 4.04200441 8.53006457 4.6875 11.3125 C4.92533203 12.27607422 5.16316406 13.23964844 5.40820312 14.23242188 C5.62798828 15.16248047 5.84777344 16.09253906 6.07421875 17.05078125 C6.27619873 17.90325439 6.47817871 18.75572754 6.6862793 19.6340332 C7.01156259 22.08720079 6.76923439 23.66873166 6 26 C3.96309933 20.37815414 2.46617548 14.8603659 1.4296875 8.96875 C1.1872214 7.00719986 1.1872214 7.00719986 0 6 C-0.04080783 4.00041636 -0.04254356 1.99954746 0 0 Z " fill="#3A76DA" transform="translate(117,186)"/>
<path d="M0 0 C0.33 0 0.66 0 1 0 C1.31702153 6.02340903 0.49067967 9.42087755 -2 15 C-2.50965516 17.67568957 -2.76148264 20.28090206 -3 23 C-4.65 23.33 -6.3 23.66 -8 24 C-7.67 22.68 -7.34 21.36 -7 20 C-6.67 20.66 -6.34 21.32 -6 22 C-4.02 14.74 -2.04 7.48 0 0 Z " fill="#C2DCFA" transform="translate(144,160)"/>
<path d="M0 0 C7.92 0 15.84 0 24 0 C24.33 1.65 24.66 3.3 25 5 C24.34 5 23.68 5 23 5 C22.67 3.68 22.34 2.36 22 1 C18.89548451 1.13894148 15.79149165 1.287343 12.6875 1.4375 C11.36588867 1.49647461 11.36588867 1.49647461 10.01757812 1.55664062 C8.74624023 1.61948242 8.74624023 1.61948242 7.44921875 1.68359375 C6.66893311 1.72025146 5.88864746 1.75690918 5.0847168 1.79467773 C2.80670899 1.94125263 2.80670899 1.94125263 0 3 C-0.33 3.66 -0.66 4.32 -1 5 C-0.67 3.35 -0.34 1.7 0 0 Z " fill="#D2EAFF" transform="translate(156,117)"/>
<path d="M0 0 C0.33 0.99 0.66 1.98 1 3 C-0.28548409 4.33929505 -1.57858155 5.67128643 -2.875 7 C-3.59429687 7.7425 -4.31359375 8.485 -5.0546875 9.25 C-7 11 -7 11 -9 11 C-9 10.01 -9 9.02 -9 8 C-8.01 8 -7.02 8 -6 8 C-6.061875 7.236875 -6.12375 6.47375 -6.1875 5.6875 C-6 3 -6 3 -4.6875 1.1875 C-3 0 -3 0 0 0 Z " fill="#175ACC" transform="translate(292,286)"/>
<path d="M0 0 C0.96661363 3.12180401 0.98988909 5.52083795 0.5625 8.75 C0.46066406 9.54921875 0.35882813 10.3484375 0.25390625 11.171875 C0.12822266 12.07679688 0.12822266 12.07679688 0 13 C-0.66 13 -1.32 13 -2 13 C-1.938125 14.5778125 -1.938125 14.5778125 -1.875 16.1875 C-1.99147875 19.74010173 -2.47208068 21.84866641 -4 25 C-4.96548985 21.9322617 -4.98532316 19.89831516 -4.2578125 16.77734375 C-4.07863281 15.99166016 -3.89945313 15.20597656 -3.71484375 14.39648438 C-3.52019531 13.58501953 -3.32554687 12.77355469 -3.125 11.9375 C-2.93808594 11.12216797 -2.75117188 10.30683594 -2.55859375 9.46679688 C-1.81387215 6.25287424 -1.04412143 3.13236429 0 0 Z " fill="#3E79E0" transform="translate(221,168)"/>
<path d="M0 0 C1.32 0 2.64 0 4 0 C4 0.66 4 1.32 4 2 C5.98 1.67 7.96 1.34 10 1 C10.268125 1.61875 10.53625 2.2375 10.8125 2.875 C11.95556848 5.2995233 11.95556848 5.2995233 15 7 C15 7.66 15 8.32 15 9 C10.1725201 7.58707905 6.2837641 5.57025846 2 3 C2 2.34 2 1.68 2 1 C1.34 0.67 0.68 0.34 0 0 Z " fill="#174DAA" transform="translate(50,296)"/>
<path d="M0 0 C4.31248609 -0.02886537 8.62494762 -0.04675255 12.9375 -0.0625 C14.16919922 -0.07087891 15.40089844 -0.07925781 16.66992188 -0.08789062 C17.83974609 -0.09111328 19.00957031 -0.09433594 20.21484375 -0.09765625 C21.84087524 -0.10551147 21.84087524 -0.10551147 23.49975586 -0.11352539 C26 0 26 0 27 1 C27.14115161 3.67058851 27.04247107 6.32432238 27 9 C25 6 25 6 24 2 C16.08 1.67 8.16 1.34 0 1 C0 0.67 0 0.34 0 0 Z " fill="#407ADF" transform="translate(156,116)"/>
<path d="M0 0 C0.33 0 0.66 0 1 0 C1.38133299 1.9914056 1.71325582 3.99279077 2 6 C1.67 6.33 1.34 6.66 1 7 C0.20946742 10.61386323 -0.48418602 14.24247397 -1.18359375 17.875 C-1.45300781 18.90625 -1.72242188 19.9375 -2 21 C-2.66 21.33 -3.32 21.66 -4 22 C-3.51298949 14.40935336 -2.00236413 7.32940833 0 0 Z " fill="#CCE6FD" transform="translate(207,143)"/>
<path d="M0 0 C6.6 0 13.2 0 20 0 C20 1.65 20 3.3 20 5 C19.67 3.68 19.34 2.36 19 1 C11.08 1.495 11.08 1.495 3 2 C2.34 3.65 1.68 5.3 1 7 C0.34 7 -0.32 7 -1 7 C-0.67 4.69 -0.34 2.38 0 0 Z " fill="#D1EAFE" transform="translate(213,117)"/>
<path d="M0 0 C1.4925137 3.98003653 0.9096003 7.94600558 0 12 C-0.95211112 14.02323613 -1.94773272 16.02699884 -3 18 C-3.69907414 20.73572585 -3.69907414 20.73572585 -4 23 C-4.66 23 -5.32 23 -6 23 C-5.37650642 20.47878568 -4.75124639 17.95803069 -4.125 15.4375 C-3.86396484 14.38079102 -3.86396484 14.38079102 -3.59765625 13.30273438 C-2.48705185 8.83975002 -1.28798784 4.41512948 0 0 Z " fill="#3675DD" transform="translate(165,152)"/>
<path d="M0 0 C0.84433594 0.00322266 1.68867187 0.00644531 2.55859375 0.00976562 C3.86763672 0.02233398 3.86763672 0.02233398 5.203125 0.03515625 C6.09128906 0.03966797 6.97945312 0.04417969 7.89453125 0.04882812 C10.08079829 0.06058225 12.26692679 0.07701376 14.453125 0.09765625 C14.453125 0.42765625 14.453125 0.75765625 14.453125 1.09765625 C13.30972656 1.15824219 12.16632813 1.21882813 10.98828125 1.28125 C9.49738195 1.36564053 8.00649725 1.45028927 6.515625 1.53515625 C5.38350586 1.59413086 5.38350586 1.59413086 4.22851562 1.65429688 C0.53368313 1.53803649 0.53368313 1.53803649 -2.546875 3.09765625 C-5.21746351 3.23880786 -7.87119738 3.14012732 -10.546875 3.09765625 C-7.40675306 -0.04246569 -4.29980075 -0.02905271 0 0 Z " fill="#1954B7" transform="translate(80.546875,28.90234375)"/>
<path d="M0 0 C1.875 0.125 1.875 0.125 4 1 C5.69726294 4.73397847 6.23990744 7.92157346 6 12 C6.66 12.33 7.32 12.66 8 13 C7.01 13 6.02 13 5 13 C4.16209211 11.21046815 3.32980604 9.41830305 2.5 7.625 C1.80390625 6.12839844 1.80390625 6.12839844 1.09375 4.6015625 C0 2 0 2 0 0 Z " fill="#1751B8" transform="translate(30,267)"/>
<path d="M0 0 C0.99 0.33 1.98 0.66 3 1 C1.44298069 5.67105792 -1.08447373 9.08705685 -4 13 C-5 10 -5 10 -4 7 C-3.34 7 -2.68 7 -2 7 C-2 6.01 -2 5.02 -2 4 C-1.34 4 -0.68 4 0 4 C0 2.68 0 1.36 0 0 Z " fill="#174FAD" transform="translate(299,274)"/>
<path d="M0 0 C0.33 0 0.66 0 1 0 C1.05416188 1.60379341 1.09286638 3.20811406 1.125 4.8125 C1.14820313 5.70582031 1.17140625 6.59914062 1.1953125 7.51953125 C1 10 1 10 -1 13 C-1.70812814 15.32108669 -2.38024152 17.65377147 -3 20 C-4.37344385 15.60155678 -3.24307502 12.07495445 -2.0625 7.75 C-1.86720703 7.00492188 -1.67191406 6.25984375 -1.47070312 5.4921875 C-0.98895802 3.65920614 -0.49560775 1.82928182 0 0 Z " fill="#3874DB" transform="translate(226,147)"/>
<path d="M0 0 C0.66 0 1.32 0 2 0 C0.9413873 6.75710231 -0.22125844 13.39324562 -2 20 C-3.03115279 16.73086376 -2.9638984 14.13958652 -2.5625 10.75 C-2.46066406 9.85796875 -2.35882813 8.9659375 -2.25390625 8.046875 C-2.17011719 7.37140625 -2.08632812 6.6959375 -2 6 C-1.34 6 -0.68 6 0 6 C0 4.02 0 2.04 0 0 Z " fill="#306FD6" transform="translate(207,135)"/>
<path d="M0 0 C2.04990741 3.31670413 2.12519669 5.21894304 1.3125 9 C1.14363281 9.845625 0.97476563 10.69125 0.80078125 11.5625 C-0.0630823 14.19201638 -1.22928643 15.89270451 -3 18 C-2.41509121 11.85845775 -1.45933748 5.99320151 0 0 Z " fill="#C6E0FC" transform="translate(211,124)"/>
<path d="M0 0 C0.66 0 1.32 0 2 0 C1.68806536 1.72926874 1.37542638 3.45841044 1.0625 5.1875 C0.88847656 6.15042969 0.71445313 7.11335938 0.53515625 8.10546875 C0.0476265 10.74239972 -0.46671105 13.3719905 -1 16 C-1.33 16 -1.66 16 -2 16 C-2 12.04 -2 8.08 -2 4 C-1.34 4 -0.68 4 0 4 C0 2.68 0 1.36 0 0 Z " fill="#2B6CDC" transform="translate(211,117)"/>
<path d="M0 0 C3.32643967 2.98232523 5.29152862 5.86370087 7 10 C6.67 10.66 6.34 11.32 6 12 C4.98829382 10.75945552 3.99102203 9.5071298 3 8.25 C2.443125 7.55390625 1.88625 6.8578125 1.3125 6.140625 C0 4 0 4 0 0 Z " fill="#134CAC" transform="translate(296,54)"/>
<path d="M0 0 C0.66 0.33 1.32 0.66 2 1 C2.4140625 3.06640625 2.4140625 3.06640625 2.625 5.5625 C2.69976562 6.38878906 2.77453125 7.21507812 2.8515625 8.06640625 C2.92503906 9.02353516 2.92503906 9.02353516 3 10 C1.68 9.67 0.36 9.34 -1 9 C-0.67 6.03 -0.34 3.06 0 0 Z " fill="#4078D5" transform="translate(167,143)"/>
<path d="M0 0 C3.96 0.33 7.92 0.66 12 1 C12 1.99 12 2.98 12 4 C10.3733152 3.71788123 8.74867104 3.42397625 7.125 3.125 C5.76761719 2.88136719 5.76761719 2.88136719 4.3828125 2.6328125 C2 2 2 2 0 0 Z " fill="#1750B0" transform="translate(66,305)"/>
<path d="M0 0 C0.33 0 0.66 0 1 0 C1 2.97 1 5.94 1 9 C0.34 9 -0.32 9 -1 9 C-1.33 10.98 -1.66 12.96 -2 15 C-2.33 15 -2.66 15 -3 15 C-2.44854729 9.76119922 -1.57077907 5.02649303 0 0 Z " fill="#1545A3" transform="translate(30,69)"/>
<path d="M0 0 C0.33 0 0.66 0 1 0 C1.10867302 1.58179615 1.18589827 3.16577153 1.25 4.75 C1.29640625 5.63171875 1.3428125 6.5134375 1.390625 7.421875 C1 10 1 10 -3 14 C-2.01 9.38 -1.02 4.76 0 0 Z " fill="#3071DB" transform="translate(158,177)"/>
<path d="M0 0 C0.99 0.33 1.98 0.66 3 1 C2.34 4.63 1.68 8.26 1 12 C0.67 12 0.34 12 0 12 C0 8.04 0 4.08 0 0 Z " fill="#3170DC" transform="translate(201,158)"/>
<path d="M0 0 C3.81684226 1.55500981 6.19195732 4.03595495 9 7 C7.02 6.34 5.04 5.68 3 5 C3 4.34 3 3.68 3 3 C2.01 3 1.02 3 0 3 C0 2.01 0 1.02 0 0 Z " fill="#1544A4" transform="translate(279,38)"/>
<path d="M0 0 C2.31 0 4.62 0 7 0 C1.85714286 4.42857143 1.85714286 4.42857143 -2 5 C-2 4.34 -2 3.68 -2 3 C-1.34 3 -0.68 3 0 3 C0 2.01 0 1.02 0 0 Z " fill="#174FAF" transform="translate(272,300)"/>
<path d="M0 0 C1.32 0 2.64 0 4 0 C4 0.66 4 1.32 4 2 C5.98 1.67 7.96 1.34 10 1 C9.67 1.99 9.34 2.98 9 4 C6.69 3.67 4.38 3.34 2 3 C2 2.34 2 1.68 2 1 C1.34 0.67 0.68 0.34 0 0 Z " fill="#1654BC" transform="translate(50,296)"/>
<path d="M0 0 C0.33 0 0.66 0 1 0 C1 1.98 1 3.96 1 6 C-0.32 6.33 -1.64 6.66 -3 7 C-1.125 1.125 -1.125 1.125 0 0 Z " fill="#1853B2" transform="translate(34,61)"/>
<path d="M0 0 C0.66 0.33 1.32 0.66 2 1 C-0.16687491 3.27521866 -2.45620509 5.15794162 -5 7 C-5.66 6.67 -6.32 6.34 -7 6 C-4.69 4.02 -2.38 2.04 0 0 Z " fill="#1345A2" transform="translate(52,40)"/>
<path d="M0 0 C1.31223496 3.93670488 0.24296256 6.12488144 -1 10 C-1.99 9.34 -2.98 8.68 -4 8 C-4 7.34 -4 6.68 -4 6 C-3.34 5.67 -2.68 5.34 -2 5 C-1.27840576 3.35636866 -0.60648579 1.68949614 0 0 Z " fill="#2967DD" transform="translate(154,119)"/>
</svg>
